<mxfile host="Electron" agent="Mozilla/5.0 (Windows NT 10.0; Win64; x64) AppleWebKit/537.36 (KHTML, like Gecko) draw.io/24.7.17 Chrome/128.0.6613.36 Electron/32.0.1 Safari/537.36" version="24.7.17">
  <diagram id="C5RBs43oDa-KdzZeNtuy" name="Page-1">
    <mxGraphModel dx="1947" dy="524" grid="1" gridSize="10" guides="1" tooltips="1" connect="1" arrows="1" fold="1" page="1" pageScale="1" pageWidth="827" pageHeight="1169" math="0" shadow="0">
      <root>
        <mxCell id="WIyWlLk6GJQsqaUBKTNV-0" />
        <mxCell id="WIyWlLk6GJQsqaUBKTNV-1" parent="WIyWlLk6GJQsqaUBKTNV-0" />
        <mxCell id="Q4sOaQklLkpfDrS4APR7-26" style="edgeStyle=orthogonalEdgeStyle;rounded=0;orthogonalLoop=1;jettySize=auto;html=1;entryX=0;entryY=0.5;entryDx=0;entryDy=0;" edge="1" parent="WIyWlLk6GJQsqaUBKTNV-1" source="y5p5e7FOgnwsol_OTvTh-0" target="y5p5e7FOgnwsol_OTvTh-13">
          <mxGeometry relative="1" as="geometry" />
        </mxCell>
        <mxCell id="y5p5e7FOgnwsol_OTvTh-0" value="Admin" style="shape=umlActor;verticalLabelPosition=bottom;verticalAlign=top;html=1;outlineConnect=0;" parent="WIyWlLk6GJQsqaUBKTNV-1" vertex="1">
          <mxGeometry x="-50" y="185" width="30" height="60" as="geometry" />
        </mxCell>
        <mxCell id="y5p5e7FOgnwsol_OTvTh-1" value="Sản phẩm" style="ellipse;whiteSpace=wrap;html=1;" parent="WIyWlLk6GJQsqaUBKTNV-1" vertex="1">
          <mxGeometry x="174" y="70" width="120" height="50" as="geometry" />
        </mxCell>
        <mxCell id="y5p5e7FOgnwsol_OTvTh-2" value="Đặc trưng" style="ellipse;whiteSpace=wrap;html=1;" parent="WIyWlLk6GJQsqaUBKTNV-1" vertex="1">
          <mxGeometry x="70" y="260" width="120" height="50" as="geometry" />
        </mxCell>
        <mxCell id="y5p5e7FOgnwsol_OTvTh-3" value="Thông tin hoá đơn" style="ellipse;whiteSpace=wrap;html=1;" parent="WIyWlLk6GJQsqaUBKTNV-1" vertex="1">
          <mxGeometry x="80" y="130" width="120" height="50" as="geometry" />
        </mxCell>
        <mxCell id="y5p5e7FOgnwsol_OTvTh-10" value="Danh mục sản phẩm" style="ellipse;whiteSpace=wrap;html=1;" parent="WIyWlLk6GJQsqaUBKTNV-1" vertex="1">
          <mxGeometry x="330" y="70" width="120" height="50" as="geometry" />
        </mxCell>
        <mxCell id="y5p5e7FOgnwsol_OTvTh-11" value="Địa chỉ Admin" style="ellipse;whiteSpace=wrap;html=1;" parent="WIyWlLk6GJQsqaUBKTNV-1" vertex="1">
          <mxGeometry x="110" y="340" width="120" height="50" as="geometry" />
        </mxCell>
        <mxCell id="y5p5e7FOgnwsol_OTvTh-12" value="Thông liên hệ" style="ellipse;whiteSpace=wrap;html=1;" parent="WIyWlLk6GJQsqaUBKTNV-1" vertex="1">
          <mxGeometry x="294" y="330" width="120" height="50" as="geometry" />
        </mxCell>
        <mxCell id="y5p5e7FOgnwsol_OTvTh-13" value="Quản lý&amp;nbsp;" style="ellipse;whiteSpace=wrap;html=1;" parent="WIyWlLk6GJQsqaUBKTNV-1" vertex="1">
          <mxGeometry x="230" y="165" width="160" height="100" as="geometry" />
        </mxCell>
        <mxCell id="Q4sOaQklLkpfDrS4APR7-0" value="Banner" style="ellipse;whiteSpace=wrap;html=1;" vertex="1" parent="WIyWlLk6GJQsqaUBKTNV-1">
          <mxGeometry x="414" y="230" width="120" height="50" as="geometry" />
        </mxCell>
        <mxCell id="Q4sOaQklLkpfDrS4APR7-1" value="Tên cửa hàng" style="ellipse;whiteSpace=wrap;html=1;" vertex="1" parent="WIyWlLk6GJQsqaUBKTNV-1">
          <mxGeometry x="410" y="130" width="120" height="50" as="geometry" />
        </mxCell>
        <mxCell id="Q4sOaQklLkpfDrS4APR7-3" value="Tên footer" style="ellipse;whiteSpace=wrap;html=1;" vertex="1" parent="WIyWlLk6GJQsqaUBKTNV-1">
          <mxGeometry x="610" y="520" width="120" height="50" as="geometry" />
        </mxCell>
        <mxCell id="Q4sOaQklLkpfDrS4APR7-16" value="" style="endArrow=none;dashed=1;html=1;rounded=0;entryX=0.5;entryY=1;entryDx=0;entryDy=0;exitX=0;exitY=0;exitDx=0;exitDy=0;" edge="1" parent="WIyWlLk6GJQsqaUBKTNV-1" source="y5p5e7FOgnwsol_OTvTh-12" target="y5p5e7FOgnwsol_OTvTh-13">
          <mxGeometry width="50" height="50" relative="1" as="geometry">
            <mxPoint x="390" y="260" as="sourcePoint" />
            <mxPoint x="440" y="210" as="targetPoint" />
          </mxGeometry>
        </mxCell>
        <mxCell id="Q4sOaQklLkpfDrS4APR7-17" value="" style="endArrow=none;dashed=1;html=1;rounded=0;entryX=0.9;entryY=0.84;entryDx=0;entryDy=0;exitX=0;exitY=0.5;exitDx=0;exitDy=0;entryPerimeter=0;" edge="1" parent="WIyWlLk6GJQsqaUBKTNV-1" source="Q4sOaQklLkpfDrS4APR7-0" target="y5p5e7FOgnwsol_OTvTh-13">
          <mxGeometry width="50" height="50" relative="1" as="geometry">
            <mxPoint x="322" y="347" as="sourcePoint" />
            <mxPoint x="320" y="275" as="targetPoint" />
          </mxGeometry>
        </mxCell>
        <mxCell id="Q4sOaQklLkpfDrS4APR7-18" value="" style="endArrow=none;dashed=1;html=1;rounded=0;entryX=1;entryY=0;entryDx=0;entryDy=0;exitX=0.033;exitY=0.72;exitDx=0;exitDy=0;exitPerimeter=0;" edge="1" parent="WIyWlLk6GJQsqaUBKTNV-1" source="Q4sOaQklLkpfDrS4APR7-1" target="y5p5e7FOgnwsol_OTvTh-13">
          <mxGeometry width="50" height="50" relative="1" as="geometry">
            <mxPoint x="332" y="357" as="sourcePoint" />
            <mxPoint x="330" y="285" as="targetPoint" />
          </mxGeometry>
        </mxCell>
        <mxCell id="Q4sOaQklLkpfDrS4APR7-19" value="" style="endArrow=none;dashed=1;html=1;rounded=0;entryX=0.65;entryY=0.02;entryDx=0;entryDy=0;exitX=0.342;exitY=0.98;exitDx=0;exitDy=0;entryPerimeter=0;exitPerimeter=0;" edge="1" parent="WIyWlLk6GJQsqaUBKTNV-1" source="y5p5e7FOgnwsol_OTvTh-10" target="y5p5e7FOgnwsol_OTvTh-13">
          <mxGeometry width="50" height="50" relative="1" as="geometry">
            <mxPoint x="342" y="367" as="sourcePoint" />
            <mxPoint x="340" y="295" as="targetPoint" />
          </mxGeometry>
        </mxCell>
        <mxCell id="Q4sOaQklLkpfDrS4APR7-20" value="" style="endArrow=none;dashed=1;html=1;rounded=0;entryX=0.381;entryY=0.04;entryDx=0;entryDy=0;exitX=0.7;exitY=0.94;exitDx=0;exitDy=0;entryPerimeter=0;exitPerimeter=0;" edge="1" parent="WIyWlLk6GJQsqaUBKTNV-1" source="y5p5e7FOgnwsol_OTvTh-1" target="y5p5e7FOgnwsol_OTvTh-13">
          <mxGeometry width="50" height="50" relative="1" as="geometry">
            <mxPoint x="352" y="377" as="sourcePoint" />
            <mxPoint x="350" y="305" as="targetPoint" />
          </mxGeometry>
        </mxCell>
        <mxCell id="Q4sOaQklLkpfDrS4APR7-21" value="" style="endArrow=none;dashed=1;html=1;rounded=0;entryX=0.05;entryY=0.3;entryDx=0;entryDy=0;exitX=0.992;exitY=0.76;exitDx=0;exitDy=0;entryPerimeter=0;exitPerimeter=0;" edge="1" parent="WIyWlLk6GJQsqaUBKTNV-1" source="y5p5e7FOgnwsol_OTvTh-3" target="y5p5e7FOgnwsol_OTvTh-13">
          <mxGeometry width="50" height="50" relative="1" as="geometry">
            <mxPoint x="362" y="387" as="sourcePoint" />
            <mxPoint x="360" y="315" as="targetPoint" />
          </mxGeometry>
        </mxCell>
        <mxCell id="Q4sOaQklLkpfDrS4APR7-22" value="" style="endArrow=none;dashed=1;html=1;rounded=0;entryX=0.992;entryY=0.36;entryDx=0;entryDy=0;exitX=0;exitY=1;exitDx=0;exitDy=0;entryPerimeter=0;" edge="1" parent="WIyWlLk6GJQsqaUBKTNV-1" source="y5p5e7FOgnwsol_OTvTh-13" target="y5p5e7FOgnwsol_OTvTh-2">
          <mxGeometry width="50" height="50" relative="1" as="geometry">
            <mxPoint x="372" y="397" as="sourcePoint" />
            <mxPoint x="370" y="325" as="targetPoint" />
          </mxGeometry>
        </mxCell>
        <mxCell id="Q4sOaQklLkpfDrS4APR7-23" value="" style="endArrow=none;dashed=1;html=1;rounded=0;entryX=0.792;entryY=0.06;entryDx=0;entryDy=0;exitX=0.294;exitY=0.95;exitDx=0;exitDy=0;entryPerimeter=0;exitPerimeter=0;" edge="1" parent="WIyWlLk6GJQsqaUBKTNV-1" source="y5p5e7FOgnwsol_OTvTh-13" target="y5p5e7FOgnwsol_OTvTh-11">
          <mxGeometry width="50" height="50" relative="1" as="geometry">
            <mxPoint x="382" y="407" as="sourcePoint" />
            <mxPoint x="380" y="335" as="targetPoint" />
          </mxGeometry>
        </mxCell>
      </root>
    </mxGraphModel>
  </diagram>
</mxfile>
